<svg xmlns="http://www.w3.org/2000/svg" width="286" height="168" fill="none"><mask id="b" width="276" height="84" x="7" y="51" fill="#000" maskUnits="userSpaceOnUse"><path fill="#fff" d="M7 51h276v84H7z"/><path d="M30 130.9q-6.2 0-10.3-1.7t-6.1-4.3q-2-2.7-2-5.4 0-3.8 3.4-6.7 3.4-3 9.2-3 0 5.1 1.3 8.2 1.3 3 3.3 4.3 2.1 1.3 4 1.3 2.3 0 3.8-1.3 1.6-1.4 1.6-3.4 0-2.8-2.9-4.9t-7.5-4.7q-2.3-1.4-5-3.2a19.7 19.7 0 0 1-4.6-4.5q-1.9-2.7-1.9-6.4 0-3.9 2.2-6.9 2.3-3 6-5a29.8 29.8 0 0 1 8-3.1q4.3-1.1 8.4-1.1 7.7 0 11.6 3.1t3.9 6.6q0 3-3 5.4t-9.2 2.4q.1-5.1-2.1-7.4-2.2-2.4-4.7-2.4-1.8 0-3 1.1t-1.2 3.2q0 2.4 1.5 4.2 1.6 1.7 3.9 3.1 2.4 1.3 4.9 2.5 3.4 1.6 6.4 3.4t4.9 4.1 1.9 5.6q0 4.5-3.7 8.4-3.6 3.8-9.7 6.2-6.1 2.3-13.3 2.3m52.007-.2q-6.6 0-11.2-3-4.5-3-6.8-7.8-2.3-4.9-2.3-10.5 0-5.3 2-10.6 2.1-5.3 6.1-9.7 4-4.5 9.7-7.1 5.8-2.7 13.3-2.7 7.4 0 11 3 3.6 2.9 3.6 6.4 0 3.7-3.7 6.8t-10.8 3.1q.4-1.5.6-3 .3-1.6.3-3 0-2.1-.9-3.5-.9-1.5-3.2-1.5-2.1 0-4.5 1.9-2.3 1.9-4 5.6-1.6 3.7-1.6 9.1 0 5.3 1.7 8.6 1.8 3.3 4.6 4.8 2.8 1.4 5.9 1.4 4.1 0 7.9-2.1 3.8-2.2 5.5-6l1 .4q0 5.2-2.4 8.9-2.3 3.6-6 6a28.6 28.6 0 0 1-7.9 3.4q-4.2 1.1-7.9 1.1m66.026-.2q-3.5 0-6.1-2.3t-2.6-7.5v-1q0-.5.1-1-3 6-6.8 8.9-3.7 2.8-7.5 2.8-3.501 0-6.6-2.4-3.1-2.5-5-7.3t-1.9-11.6q0-7 1.9-12.5 2-5.5 5.2-9.3t7-5.7q3.8-2 7.4-2 3.999 0 7.2 2.5 3.2 2.4 4.4 7.7.3-1.7.4-3.1.2-1.4.2-1.9.099-2.7 2.7-4 2.7-1.3 5.9-1.3 2.8 0 5.3 1.1t3.4 3.7l.2.6q-1.2 2.7-2.4 6.5t-2.2 8a91 91 0 0 0-1.6 8.1q-.6 3.9-.6 6.9 0 3.3.7 4.6.7 1.2 1.7 1.2 1.7 0 3.1-2.4l.8.4q0 3.4-2.2 6.2t-5.5 4.5q-3.3 1.6-6.6 1.6m-16.3-12.7q2.6 0 5.7-4.6 3.2-4.7 5.5-13.4.2-.9.4-1.7.2-.9.3-1.7-1.6-3.7-3.4-5.2-1.7-1.6-3.4-1.6-2.5 0-4.7 2.7-2.1 2.6-3.5 6.6-1.3 4-1.3 8 0 5.5 1.2 8.2 1.3 2.7 3.2 2.7m48.045 12.5q-3.7 0-6.7-2.9-3-3-3-8.3 0-2.6.7-5.9t1.5-6.7q.9-3.4 1.6-6.4t.7-4.9q0-2-.8-3.1-.8-1.2-2.1-1.2-1.7 0-3.7 2l-.6-.4q-.1-1.6.7-3.8t2.4-4.2q1.7-2.1 4.3-3.5t6.2-1.4q5.3 0 7.8 3.1 2.6 3 2.6 7.4 0 1.6-.3 3.1 2.1-3.1 5.2-6.2 3.1-3.2 6.8-5.3 3.8-2.1 7.8-2.1 4.7 0 6.4 3t1.7 7.5q0 4.2-.9 9t-1.8 9.3q-.9 4.4-.9 7.4 0 4 2.3 4 1.2 0 2.1-.7.9-.8 1.2-1.5l.7.3q0 3.7-2.1 6.5a14.14 14.14 0 0 1-5.1 4.4q-3.1 1.5-6.3 1.5-3.9 0-6.9-2.7t-3-8.8q0-3.6.9-7.8 1-4.2 1.9-8.1t.9-6.4q0-1.5-.6-2.3-.5-.9-1.9-.9-2.3 0-5.1 2.1-2.7 2.1-4.7 5.6-1.9 3.5-1.9 7.7 0 2.7.6 5.2.7 2.5.7 5.4 0 5.4-2.8 8.2t-6.5 2.8m55.36.1q-3.6 0-6.5-3t-2.9-9.9q0-5.6 1.3-11t2.9-10.9a107 107 0 0 0 2.8-11.5q1.2-6 .8-12.6-2.7.4-5.3 1.4-2.601 1-5.1 2.9 0-6.3 1.099-10.2 1.1-4 4.301-5.8t9.5-1.8q3.4 0 7.6.5t8.6 1q4.5.5 8.5.5 3.9 0 7-.7 3.099-.8 4.8-2.8 2 1.3 3 3.6 1.1 2.2 1.1 4.8 0 2.7-1.3 5.3-1.2 2.5-3.8 4.2-2.6 1.6-6.8 1.6-4.401 0-9.6-1.4a132 132 0 0 0-10.7-2.4q.5 2.2.7 4.4.3 2.2.3 4.5 0 2.5-.2 5a73 73 0 0 1-.601 5q2.101-1.1 5.101-2t6.1-1.5q3.2-.6 5.7-.6 1.6 0 2.8.3 1 2.1 1 5.1 0 4.8-2.4 9.8l-.7.3q-3.7-2-8.6-3.1-4.8-1.1-10.1-1.5-1 5.7-1.9 11.6t-.9 12.1v2.7l.2 2.8q-3.3 3.3-7.8 3.3"/></mask><g filter="url(#a)"><path fill="#F8F152" d="M30 130.9q-6.2 0-10.3-1.7t-6.1-4.3q-2-2.7-2-5.4 0-3.8 3.4-6.7 3.4-3 9.2-3 0 5.1 1.3 8.2 1.3 3 3.3 4.3 2.1 1.3 4 1.3 2.3 0 3.8-1.3 1.6-1.4 1.6-3.4 0-2.8-2.9-4.9t-7.5-4.7q-2.3-1.4-5-3.2a19.7 19.7 0 0 1-4.6-4.5q-1.9-2.7-1.9-6.4 0-3.9 2.2-6.9 2.3-3 6-5a29.8 29.8 0 0 1 8-3.1q4.3-1.1 8.4-1.1 7.7 0 11.6 3.1t3.9 6.6q0 3-3 5.4t-9.2 2.4q.1-5.1-2.1-7.4-2.2-2.4-4.7-2.4-1.8 0-3 1.1t-1.2 3.2q0 2.4 1.5 4.2 1.6 1.7 3.9 3.1 2.4 1.3 4.9 2.5 3.4 1.6 6.4 3.4t4.9 4.1 1.9 5.6q0 4.5-3.7 8.4-3.6 3.8-9.7 6.2-6.1 2.3-13.3 2.3m52.007-.2q-6.6 0-11.2-3-4.5-3-6.8-7.8-2.3-4.9-2.3-10.5 0-5.3 2-10.6 2.1-5.3 6.1-9.7 4-4.5 9.7-7.1 5.8-2.7 13.3-2.7 7.4 0 11 3 3.6 2.9 3.6 6.4 0 3.7-3.7 6.8t-10.8 3.1q.4-1.5.6-3 .3-1.6.3-3 0-2.1-.9-3.5-.9-1.5-3.2-1.5-2.1 0-4.5 1.9-2.3 1.9-4 5.6-1.6 3.7-1.6 9.1 0 5.3 1.7 8.6 1.8 3.3 4.6 4.8 2.8 1.4 5.9 1.4 4.1 0 7.9-2.1 3.8-2.2 5.5-6l1 .4q0 5.2-2.4 8.9-2.3 3.6-6 6a28.6 28.6 0 0 1-7.9 3.4q-4.2 1.1-7.9 1.1m66.026-.2q-3.5 0-6.1-2.3t-2.6-7.5v-1q0-.5.1-1-3 6-6.8 8.9-3.7 2.8-7.5 2.8-3.501 0-6.6-2.4-3.1-2.5-5-7.3t-1.9-11.6q0-7 1.9-12.5 2-5.5 5.2-9.3t7-5.7q3.8-2 7.4-2 3.999 0 7.2 2.5 3.2 2.4 4.4 7.7.3-1.7.4-3.1.2-1.4.2-1.9.099-2.7 2.7-4 2.7-1.3 5.9-1.3 2.8 0 5.3 1.1t3.4 3.7l.2.6q-1.2 2.7-2.4 6.5t-2.2 8a91 91 0 0 0-1.6 8.1q-.6 3.9-.6 6.9 0 3.3.7 4.6.7 1.2 1.7 1.2 1.7 0 3.1-2.4l.8.4q0 3.4-2.2 6.2t-5.5 4.5q-3.3 1.6-6.6 1.6m-16.3-12.7q2.6 0 5.7-4.6 3.2-4.7 5.5-13.4.2-.9.4-1.7.2-.9.3-1.7-1.6-3.7-3.4-5.2-1.7-1.6-3.4-1.6-2.5 0-4.7 2.7-2.1 2.6-3.5 6.6-1.3 4-1.3 8 0 5.5 1.2 8.2 1.3 2.7 3.2 2.7m48.045 12.5q-3.7 0-6.7-2.9-3-3-3-8.3 0-2.6.7-5.9t1.5-6.7q.9-3.4 1.6-6.4t.7-4.9q0-2-.8-3.1-.8-1.2-2.1-1.2-1.7 0-3.7 2l-.6-.4q-.1-1.6.7-3.8t2.4-4.2q1.7-2.1 4.3-3.5t6.2-1.4q5.3 0 7.8 3.1 2.6 3 2.6 7.4 0 1.6-.3 3.1 2.1-3.1 5.2-6.2 3.1-3.2 6.8-5.3 3.8-2.1 7.8-2.1 4.7 0 6.4 3t1.7 7.5q0 4.2-.9 9t-1.8 9.3q-.9 4.4-.9 7.4 0 4 2.3 4 1.2 0 2.1-.7.9-.8 1.2-1.5l.7.3q0 3.7-2.1 6.5a14.14 14.14 0 0 1-5.1 4.4q-3.1 1.5-6.3 1.5-3.9 0-6.9-2.7t-3-8.8q0-3.6.9-7.8 1-4.2 1.9-8.1t.9-6.4q0-1.5-.6-2.3-.5-.9-1.9-.9-2.3 0-5.1 2.1-2.7 2.1-4.7 5.6-1.9 3.5-1.9 7.7 0 2.7.6 5.2.7 2.5.7 5.4 0 5.4-2.8 8.2t-6.5 2.8m55.36.1q-3.6 0-6.5-3t-2.9-9.9q0-5.6 1.3-11t2.9-10.9a107 107 0 0 0 2.8-11.5q1.2-6 .8-12.6-2.7.4-5.3 1.4-2.601 1-5.1 2.9 0-6.3 1.099-10.2 1.1-4 4.301-5.8t9.5-1.8q3.4 0 7.6.5t8.6 1q4.5.5 8.5.5 3.9 0 7-.7 3.099-.8 4.8-2.8 2 1.3 3 3.6 1.1 2.2 1.1 4.8 0 2.7-1.3 5.3-1.2 2.5-3.8 4.2-2.6 1.6-6.8 1.6-4.401 0-9.6-1.4a132 132 0 0 0-10.7-2.4q.5 2.2.7 4.4.3 2.2.3 4.5 0 2.5-.2 5a73 73 0 0 1-.601 5q2.101-1.1 5.101-2t6.1-1.5q3.2-.6 5.7-.6 1.6 0 2.8.3 1 2.1 1 5.1 0 4.8-2.4 9.8l-.7.3q-3.7-2-8.6-3.1-4.8-1.1-10.1-1.5-1 5.7-1.9 11.6t-.9 12.1v2.7l.2 2.8q-3.3 3.3-7.8 3.3"/></g><path fill="#000" d="m19.7 129.2-1.532 3.695zm-6.1-4.3-3.214 2.381.021.029.023.029zm1.4-12.1 2.596 3.043.025-.021.026-.023zm9.2-3h4v-4h-4zm1.3 8.2-3.689 1.547.01.022.009.021zm3.3 4.3-2.18 3.354.037.024.038.023zm7.8 0 2.62 3.023.007-.006.007-.007zm-1.3-8.3 2.346-3.24zm-7.5-4.7-2.08 3.417.056.033.056.032zm-5-3.2-2.302 3.271.041.029.042.028zm-4.6-4.5-3.271 2.302.02.029.021.029zm.3-13.3-3.174-2.434-.026.034-.026.034zm6-5 1.902 3.519.037-.02.035-.02zm8-3.1.906 3.896.043-.01.042-.01zm20.9 14 2.499 3.123zm-9.2 2.4-4-.078-.08 4.078h4.08zm-2.1-7.4-2.949 2.703.03.031.028.03zm-7.7-1.3-2.703-2.949zm.3 7.4-3.073 2.56.077.094.083.088zm3.9 3.1-2.08 3.417.086.052.089.048zm4.9 2.5-1.73 3.606.013.007.014.006zm6.4 3.4-2.058 3.43zm3.1 18.1-2.902-2.753-.002.002zm-9.7 6.2 1.411 3.743.027-.01.026-.011zM30 126.9c-3.802 0-6.672-.526-8.768-1.395l-3.064 7.39c3.37 1.398 7.367 2.005 11.832 2.005zm-8.768-1.395c-2.306-.956-3.68-2.027-4.462-3.044l-6.34 4.878c1.884 2.45 4.578 4.246 7.738 5.556zm-4.418-2.986c-.95-1.282-1.214-2.267-1.214-3.019h-8c0 2.848 1.069 5.463 2.786 7.781zM15.6 119.5c0-1.152.447-2.335 1.996-3.657l-5.192-6.086C9.42 112.302 7.6 115.585 7.6 119.5zm2.047-3.701c1.35-1.191 3.381-1.999 6.553-1.999v-8c-4.561 0-8.663 1.192-11.846 4.001zM20.2 109.8c0 3.683.461 7.004 1.611 9.747l7.378-3.094c-.584-1.391-.989-3.536-.989-6.653zm1.63 9.79c1.067 2.462 2.595 4.637 4.79 6.064l4.36-6.708c-.471-.306-1.143-.999-1.81-2.536zm4.865 6.111c1.846 1.143 3.902 1.899 6.105 1.899v-8c-.33 0-.94-.111-1.895-.701zM32.8 127.6c2.334 0 4.579-.682 6.42-2.277l-5.24-6.046c-.159.138-.447.323-1.18.323zm6.434-2.29c1.873-1.638 2.966-3.843 2.966-6.41h-8a.6.6 0 0 1-.01.117.1.1 0 0 1-.01.03c-.002.006-.041.091-.214.243zm2.966-6.41c0-3.5-1.903-6.22-4.554-8.14l-4.692 6.48c1.215.88 1.246 1.426 1.246 1.66zm-4.554-8.14c-2.097-1.518-4.736-3.166-7.878-4.942l-3.936 6.964c2.991 1.691 5.352 3.176 7.122 4.458zm-7.766-4.877a141 141 0 0 1-4.861-3.111l-4.438 6.656a148 148 0 0 0 5.14 3.289zm-4.778-3.054a15.7 15.7 0 0 1-3.672-3.59l-6.46 4.721a23.7 23.7 0 0 0 5.528 5.411zm-3.63-3.531c-.737-1.046-1.172-2.352-1.172-4.098h-8c0 3.187.832 6.148 2.629 8.702zM20.3 95.2c0-1.793.487-3.255 1.426-4.535l-6.452-4.73C13.28 88.655 12.3 91.793 12.3 95.2zm1.374-4.466c1.154-1.505 2.701-2.82 4.728-3.915l-3.804-7.038c-2.906 1.571-5.36 3.59-7.272 6.085zm4.8-3.955a25.8 25.8 0 0 1 6.932-2.683l-1.812-7.792a33.8 33.8 0 0 0-9.068 3.517zm7.017-2.704c2.57-.657 5.036-.975 7.409-.975v-8c-3.094 0-6.227.415-9.391 1.225zM40.9 83.1c4.696 0 7.513.961 9.111 2.231l4.978-6.262C51.387 76.205 46.471 75.1 40.9 75.1zm9.111 2.231c2.069 1.645 2.389 2.81 2.389 3.469h8c0-4.007-2.28-7.242-5.411-9.731zM52.4 88.8c0 .457-.158 1.204-1.499 2.276l4.998 6.248c2.66-2.128 4.501-4.981 4.501-8.524zm-1.499 2.276c-.97.777-2.958 1.524-6.701 1.524v8c4.523 0 8.67-.853 11.699-3.276zM48.2 96.679c.076-3.844-.675-7.595-3.208-10.243l-5.782 5.53c.4.418 1.05 1.602.992 4.557zm-3.15-10.18C43.066 84.334 40.502 82.8 37.4 82.8v8c.232 0 .8.066 1.751 1.103zM37.4 82.8c-2.086 0-4.085.668-5.703 2.151l5.406 5.898.02-.017.004-.001a.8.8 0 0 1 .273-.031zm-5.703 2.151c-1.85 1.697-2.497 3.972-2.497 6.149h8c0-.326.047-.45.045-.445a.654.654 0 0 1-.142.194zM29.2 91.1c0 2.51.812 4.823 2.427 6.76l6.146-5.12c-.385-.463-.573-.951-.573-1.64zm2.587 6.942c1.347 1.43 2.939 2.683 4.733 3.775l4.16-6.834c-1.273-.774-2.28-1.589-3.067-2.425zm4.908 3.875q2.488 1.347 5.074 2.589l3.462-7.212a108 108 0 0 1-4.726-2.411zm5.102 2.602a68 68 0 0 1 6.045 3.211l4.116-6.86a76 76 0 0 0-6.755-3.59zm6.045 3.211c1.676 1.006 2.942 2.089 3.874 3.218l6.168-5.096c-1.601-1.938-3.602-3.588-5.926-4.982zm3.874 3.218c.61.739.984 1.677.984 3.052h8c0-3.025-.894-5.82-2.816-8.148zM52.7 114c0 1.782-.694 3.636-2.602 5.647l5.804 5.506c3.026-3.189 4.798-6.935 4.798-11.153zm-2.604 5.649c-1.909 2.015-4.605 3.791-8.26 5.229l2.928 7.444c4.479-1.762 8.249-4.119 11.14-7.171zm-8.207 5.208c-3.571 1.347-7.52 2.043-11.889 2.043v8c5.232 0 10.149-.837 14.711-2.557zm28.918 2.843-2.219 3.328.017.011.017.011zm-6.8-7.8-3.62 1.7.006.014.007.014zm-.3-21.1-3.719-1.474-.012.031-.011.03zm6.1-9.7 2.96 2.69.015-.016.015-.017zm9.7-7.1 1.66 3.64.014-.007.014-.007zm24.3.3-2.561 3.073.026.021.026.021zm-.1 13.2-2.569-3.066zm-10.8 3.1-3.865-1.03-1.341 5.03h5.206zm.6-3-3.931-.737-.02.104-.014.104zm-.6-6.5-3.43 2.058.032.053.033.052zm-7.7.4-2.483-3.136-.032.026-.032.026zm-4 5.6-3.635-1.67-.019.041-.017.041zm.1 17.7-3.556 1.832.022.042.023.041zm4.6 4.8-1.889 3.526.05.027.05.025zm13.8-.7 1.935 3.501.035-.019.034-.02zm5.5-6 1.486-3.714-3.568-1.427-1.569 3.508zm1 .4h4v-2.708l-2.514-1.006zm-2.4 8.9-3.356-2.177-.007.012-.008.011zm-6 6 2.112 3.397.032-.02.033-.021zm-15.8.5c-3.782 0-6.72-.853-9.015-2.35l-4.37 6.7c3.838 2.503 8.368 3.65 13.385 3.65zm-8.981-2.328c-2.412-1.608-4.194-3.66-5.412-6.2l-7.214 3.456c1.849 3.86 4.6 7.008 8.188 9.4zm-5.398-6.172c-1.275-2.716-1.921-5.633-1.921-8.8h-8c0 4.3.887 8.383 2.68 12.2zm-1.921-8.8c0-3.019.568-6.075 1.742-9.188l-7.484-2.824c-1.492 3.953-2.258 7.964-2.258 12.012zm1.719-9.127c1.215-3.066 2.984-5.89 5.34-8.482l-5.919-5.382c-2.976 3.275-5.273 6.917-6.859 10.917zm5.37-8.516c2.282-2.566 5.057-4.606 8.371-6.118l-3.32-7.278c-4.286 1.955-7.978 4.648-11.03 8.081zm8.4-6.13C84.45 84.11 88.29 83.3 92.806 83.3v-8c-5.484 0-10.51.989-14.988 3.074zM92.806 83.3c4.509 0 7.072.933 8.439 2.073l5.122-6.146c-3.433-2.86-8.203-3.927-13.561-3.927zm8.491 2.115c1.782 1.436 2.109 2.525 2.109 3.285h8c0-3.907-2.073-7.084-5.091-9.515zm2.109 3.285c0 .945-.413 2.18-2.269 3.734l5.138 6.132c3.078-2.579 5.131-5.877 5.131-9.866zm-2.269 3.734c-1.474 1.235-4.008 2.166-8.231 2.166v8c5.243 0 9.91-1.136 13.369-4.034zm-4.366 7.197q.465-1.742.7-3.502l-7.93-1.058q-.164 1.24-.5 2.498zm.666-3.294c.239-1.271.369-2.52.369-3.737h-8c0 .65-.07 1.401-.231 2.263zm.369-3.737c0-1.967-.424-3.935-1.535-5.663l-6.73 4.326c.09.138.265.504.265 1.337zm-1.47-5.558c-1.549-2.58-4.194-3.442-6.63-3.442v8c.35 0 .385.06.252-.003a1.154 1.154 0 0 1-.482-.439zm-6.63-3.442c-2.632 0-4.989 1.185-6.983 2.764l4.966 6.272c1.206-.955 1.85-1.036 2.017-1.036zm-7.047 2.816c-2.135 1.764-3.79 4.19-5.088 7.014l7.27 3.34c.969-2.108 1.98-3.416 2.913-4.186zm-5.124 7.096c-1.344 3.108-1.929 6.717-1.929 10.688h8c0-3.229.482-5.686 1.272-7.512zM75.607 104.2c0 3.916.621 7.475 2.144 10.432l7.112-3.664c-.744-1.443-1.256-3.617-1.256-6.768zm2.189 10.515c1.503 2.756 3.552 4.98 6.222 6.411l3.778-7.052c-1.063-.569-2.08-1.545-2.977-3.189zm6.322 6.463A17 17 0 0 0 91.807 123v-8a9 9 0 0 1-4.111-.978zM91.807 123c3.45 0 6.745-.892 9.835-2.599l-3.87-7.002c-1.977 1.093-3.949 1.601-5.965 1.601zm9.904-2.638c3.219-1.864 5.651-4.484 7.147-7.829l-7.302-3.266c-.771 1.722-2.005 3.101-3.853 4.171zm2.01-5.748 1 .4 2.972-7.428-1-.4zm-1.514-3.314c0 2.835-.647 5.014-1.756 6.723l6.712 4.354c2.091-3.224 3.044-6.979 3.044-11.077zm-1.771 6.746c-1.215 1.903-2.802 3.499-4.806 4.798l4.354 6.712c2.93-1.901 5.343-4.305 7.194-7.202zm-4.74 4.757a24.7 24.7 0 0 1-6.802 2.928l2.026 7.738a32.6 32.6 0 0 0 8.999-3.872zm-6.802 2.928c-2.525.661-4.815.969-6.887.969v8c2.862 0 5.838-.425 8.914-1.231zm53.039 2.469-2.65 2.996zm-2.5-9.5 3.922.784-7.5-2.573zm-6.8 8.9 2.414 3.19.006-.005.007-.005zm-14.1.4-2.511 3.114.031.025.031.024zm-5-31.4-3.759-1.367-.011.03-.011.03zm5.2-9.3 3.059 2.576zm7-5.7 1.789 3.578.037-.019.037-.02zm14.6.5-2.463 3.152.031.024.032.024zm4.4 7.7-3.901.883 7.84-.188zm.4-3.1-3.96-.566-.02.14-.01.141zm.2-1.9-3.997-.148-.003.074v.074zm2.7-4-1.735-3.604-.027.013-.027.013zm11.2-.2 1.611-3.661zm3.4 3.7 3.795-1.265-.008-.022-.007-.021zm.2.6 3.655 1.625.63-1.418-.49-1.472zm-2.4 6.5-3.815-1.205zm-2.2 8 3.886.948.002-.011.003-.011zm-1.6 8.1 3.953.608.001-.007.002-.008zm.1 11.5-3.522 1.896.032.061.035.058zm4.8-1.2 1.789-3.578-3.355-1.677-1.889 3.24zm.8.4h4v-2.472l-2.211-1.106zm-2.2 6.2 3.145 2.471zm-5.5 4.5 1.745 3.599.044-.021.043-.022zm-17.2-15.7-3.307-2.251-.005.008-.005.008zm5.5-13.4 3.867 1.022.02-.077.018-.077zm.4-1.7 3.88.97.013-.05.012-.052zm.3-1.7 3.969.496.135-1.082-.433-1.002zm-3.4-5.2-2.742 2.913.088.083.093.077zm-8.1 1.1-3.101-2.527-.006.007-.005.007zm-3.5 6.6-3.776-1.321-.014.042-.014.043zm-.1 16.2-3.655 1.625.024.055.027.055zm19.5 11.4c-1.366 0-2.454-.415-3.45-1.296l-5.3 5.992c2.471 2.186 5.449 3.304 8.75 3.304zm-3.45-1.296c-.522-.462-1.25-1.608-1.25-4.504h-8c0 4.037 1.005 7.891 3.95 10.496zm-1.25-4.504v-1h-8v1zm0-1q-.001-.096.022-.216l-7.845-1.568a9 9 0 0 0-.177 1.784zm-7.478-2.789c-1.83 3.661-3.755 6.064-5.649 7.509l4.854 6.36c3.172-2.422 5.781-5.952 7.951-10.291zm-5.636 7.499c-1.929 1.46-3.603 1.99-5.086 1.99v8c3.583 0 6.909-1.337 9.914-3.61zm-5.086 1.99c-1.341 0-2.697-.437-4.151-1.563l-4.898 6.326c2.679 2.074 5.723 3.237 9.049 3.237zm-4.089-1.514c-1.393-1.123-2.706-2.915-3.792-5.658l-7.438 2.944c1.447 3.657 3.467 6.731 6.208 8.942zm-3.792-5.658c-1.033-2.609-1.619-5.947-1.619-10.128h-8c0 4.886.68 9.281 2.181 13.072zm-1.619-10.128c0-4.31.585-8.023 1.681-11.194l-7.562-2.612c-1.438 4.162-2.119 8.782-2.119 13.806zm1.659-11.133c1.201-3.302 2.718-5.974 4.5-8.09l-6.119-5.153c-2.484 2.95-4.434 6.478-5.899 10.509zm4.5-8.09c1.842-2.187 3.759-3.714 5.73-4.7l-3.578-7.155c-3.096 1.548-5.845 3.821-8.271 6.701zm5.804-4.737c2.069-1.09 3.9-1.54 5.537-1.54v-8c-3.163 0-6.266.883-9.263 2.46zm5.537-1.54c1.759 0 3.296.526 4.737 1.652l4.925-6.304c-2.825-2.207-6.088-3.348-9.662-3.348zm4.8 1.7c1.139.855 2.233 2.443 2.899 5.383l7.802-1.766c-.934-4.127-2.774-7.672-5.901-10.017zm10.739 5.195c.219-1.24.372-2.412.451-3.51l-7.98-.57a27 27 0 0 1-.349 2.69zm.421-3.23c.128-.898.24-1.804.24-2.465h-8c0-.047.001.028-.028.306q-.039.373-.132 1.028zm.237-2.317a1 1 0 0 1 .031-.231c.007-.023.012-.028.012-.03.002-.001.02-.03.081-.08.062-.052.177-.134.368-.23l-3.578-7.155c-1.357.679-2.595 1.647-3.502 2.99-.916 1.358-1.349 2.885-1.406 4.44zm.438-.544c1.222-.588 2.591-.904 4.165-.904v-8c-2.693 0-5.258.551-7.635 1.696zm4.165-.904c1.326 0 2.543.257 3.689.761l3.222-7.322a17 17 0 0 0-6.911-1.439zm3.689.761c.639.282.992.657 1.231 1.347l7.56-2.616c-.961-2.777-2.875-4.868-5.569-6.053zm1.216 1.304.2.6 7.59-2.53-.2-.6zm.34-2.29c-.878 1.975-1.729 4.29-2.56 6.92l7.629 2.41c.769-2.437 1.519-4.455 2.241-6.08zm-2.56 6.92a119 119 0 0 0-2.276 8.279l7.782 1.852a111 111 0 0 1 2.123-7.721zm-2.271 8.257a96 96 0 0 0-1.67 8.455l7.912 1.186a87 87 0 0 1 1.53-7.745zm-1.668 8.44c-.422 2.742-.646 5.252-.646 7.508h8c0-1.744.175-3.834.553-6.292zm-.646 7.508c0 2.235.195 4.671 1.178 6.496l7.044-3.792c.072.134-.01.038-.093-.506-.076-.504-.129-1.223-.129-2.198zm1.245 6.615c.871 1.494 2.539 3.185 5.155 3.185v-8c.527 0 1.019.176 1.382.432.313.222.41.415.373.353zm5.155 3.185c3.298 0 5.38-2.371 6.555-4.385l-6.91-4.03a4 4 0 0 1-.358.53c-.089.109-.13.137-.111.122.022-.017.111-.081.27-.139.164-.061.355-.098.554-.098zm1.311-2.822.8.4 3.578-7.156-.8-.4zm-1.411-3.178c0 1.326-.404 2.531-1.345 3.729l6.29 4.942c1.992-2.535 3.055-5.463 3.055-8.671zm-1.345 3.729c-1.097 1.395-2.475 2.533-4.187 3.415l3.664 7.112c2.688-1.385 4.976-3.247 6.813-5.585zm-4.1 3.372c-1.718.832-3.324 1.199-4.855 1.199v8c2.869 0 5.662-.7 8.345-2.001zm-21.155-3.501c2.09 0 3.861-.927 5.237-2.037 1.376-1.111 2.626-2.615 3.78-4.328l-6.634-4.47c-.913 1.354-1.647 2.15-2.17 2.572-.524.423-.57.263-.213.263zm9.006-6.349c2.493-3.661 4.471-8.615 6.061-14.629l-7.734-2.044c-1.477 5.586-3.166 9.566-4.94 12.171zm6.099-14.783q.189-.855.375-1.598l-7.761-1.94a69 69 0 0 0-.424 1.802zm.4-1.7q.236-1.06.364-2.072l-7.938-.992q-.072.588-.236 1.328zm.066-4.156c-1.16-2.683-2.599-5.092-4.51-6.685l-5.122 6.146c.488.407 1.316 1.464 2.289 3.715zm-4.33-6.525c-1.595-1.5-3.66-2.687-6.141-2.687v8c-.082 0-.094-.023-.003.02.106.05.33.181.661.493zm-6.141-2.687c-3.291 0-5.889 1.826-7.801 4.173l6.202 5.054c1.021-1.253 1.556-1.227 1.599-1.227zm-7.812 4.187c-1.753 2.17-3.118 4.803-4.164 7.792l7.551 2.642c.821-2.345 1.79-4.112 2.837-5.408zm-4.192 7.877c-.99 3.045-1.496 6.128-1.496 9.236h8c0-2.226.36-4.476 1.104-6.764zm-1.496 9.236c0 3.826.397 7.243 1.545 9.825l7.31-3.25c-.453-1.018-.855-3.068-.855-6.575zm1.596 9.935c1.11 2.306 3.221 4.965 6.804 4.965v-8c.169 0 .353.032.527.099.168.065.268.14.302.169.03.025-.006.002-.089-.115a4 4 0 0 1-.336-.588zm48.149 10.565-2.828 2.828.024.024.024.024zm-2.3-14.2 3.913.83zm1.5-6.7-3.867-1.024-.014.054-.013.054zm1.6-6.4 3.895.909zm-.1-8-3.328 2.219.045.068.048.066zm-5.8.8-2.219 3.328 2.729 1.82 2.319-2.32zm-.6-.4-3.992.25.124 1.978 1.649 1.1zm.7-3.8 3.759 1.367zm2.4-4.2-3.109-2.517-.007.01-.007.008zm18.3-1.8-3.114 2.511.045.055.046.054zm2.3 10.5-3.922-.785 7.234 3.028zm5.2-6.2 2.829 2.828.022-.022.022-.023zm6.8-5.3-1.935-3.501-.02.011-.019.011zm14.2.9 3.48-1.972zm-1 25.8 3.919.802.002-.009.001-.009zm3.5 10.7 2.456 3.157.103-.08.099-.087zm1.2-1.5 1.576-3.677-3.677-1.575-1.575 3.676zm.7.3h4v-2.638l-2.424-1.039zm-2.1 6.5-3.2-2.4-.028.037-.027.038zm-5.1 4.4 1.742 3.601.047-.023.046-.024zm-13.2-1.2-2.676 2.973zm-2.1-16.6-3.891-.926-.011.044-.009.044zm1.9-8.1-3.897-.899zm.3-8.7-3.497 1.943.133.238.164.219zm-7 1.2-2.4-3.2-.028.021-.028.022zm-4.7 5.6-3.473-1.985-.021.038-.021.039zm-1.3 12.9-3.889.933.017.073.02.073zm-2.1 13.6 2.829 2.828zm-6.5-1.2c-1.294 0-2.562-.464-3.92-1.776l-5.56 5.752c2.643 2.554 5.841 4.024 9.48 4.024zm-3.871-1.728c-1.074-1.073-1.829-2.72-1.829-5.472h-8c0 4.315 1.245 8.201 4.172 11.128zm-1.829-5.472c0-1.386.188-3.067.613-5.07l-7.826-1.66c-.508 2.397-.787 4.65-.787 6.73zm.613-5.07q.69-3.255 1.481-6.614l-7.788-1.832a320 320 0 0 0-1.519 6.786zm1.454-6.506q.914-3.45 1.628-6.515l-7.79-1.818q-.685 2.935-1.572 6.285zm1.628-6.515c.499-2.138.805-4.107.805-5.809h-8c0 .832-.161 2.13-.595 3.991zm.805-5.809c0-1.8-.35-3.782-1.565-5.453l-6.47 4.706c-.076-.106-.067-.143-.038-.029.031.121.073.367.073.776zm-1.472-5.319c-1.179-1.77-3.06-2.981-5.428-2.981v8a1.7 1.7 0 0 1-.809-.227 1.3 1.3 0 0 1-.419-.354zm-5.428-2.981c-2.713 0-4.916 1.56-6.528 3.172l5.657 5.656c.48-.48.816-.71.998-.81.169-.09.11-.018-.127-.018zm-1.481 2.672-.6-.4-4.438 6.656.6.4zm1.173 2.678c-.02-.325.043-1.015.467-2.183l-7.518-2.734c-.642 1.766-1.046 3.609-.933 5.416zm.467-2.183c.371-1.02.945-2.043 1.765-3.068L167.355 82c-1.314 1.642-2.341 3.42-3.036 5.332zm1.75-3.05c.77-.951 1.777-1.79 3.088-2.495l-3.793-7.044c-2.157 1.161-4.016 2.656-5.513 4.505zm3.088-2.495c1.035-.558 2.421-.922 4.303-.922v-8c-2.918 0-5.666.57-8.096 1.878zm4.303-.922c2.753 0 4.013.776 4.686 1.611l6.228-5.022c-2.66-3.298-6.6-4.589-10.914-4.589zm4.777 1.72c1.034 1.192 1.623 2.697 1.623 4.78h8c0-3.784-1.144-7.212-3.577-10.02zm1.623 4.78q-.001 1.221-.222 2.316L195 93.985q.38-1.906.378-3.885zm7.012 5.343c1.236-1.824 2.8-3.698 4.717-5.615l-5.657-5.656c-2.217 2.216-4.12 4.476-5.684 6.785zm4.761-5.66c1.814-1.873 3.781-3.4 5.902-4.604l-3.949-6.958c-2.813 1.597-5.38 3.602-7.699 5.996zm5.862-4.582c1.993-1.101 3.932-1.601 5.865-1.601v-8c-3.4 0-6.661.9-9.735 2.599zm5.865-1.601c2.286 0 2.747.668 2.92.972l6.96-3.944c-2.094-3.695-5.899-5.028-9.88-5.028zm2.92.972c.704 1.242 1.18 3.014 1.18 5.528h8c0-3.486-.657-6.714-2.22-9.472zm1.18 5.528c0 2.517-.27 5.268-.831 8.263l7.863 1.474c.638-3.405.968-6.654.968-9.737zm-.831 8.263a816 816 0 0 1-1.791 9.253l7.844 1.568a779 779 0 0 0 1.81-9.347zm-1.788 9.235c-.63 3.081-.981 5.836-.981 8.202h8c0-1.634.249-3.813.819-6.598zm-.981 8.202c0 1.586.205 3.424 1.108 4.994 1.094 1.903 2.988 3.006 5.192 3.006v-8c.212 0 .59.052 1 .289.41.238.64.539.743.717.088.154.067.188.029-.009a5.5 5.5 0 0 1-.072-.997zm6.3 8c1.64 0 3.215-.5 4.556-1.543l-4.912-6.314a.7.7 0 0 1 .216-.113c.091-.03.146-.03.14-.03zm4.758-1.71c.811-.722 1.691-1.683 2.219-2.914l-7.353-3.152c.037-.088.072-.147.09-.177q.03-.045.013-.021a2.6 2.6 0 0 1-.284.284zm-3.034-.813.7.3 3.152-7.354-.7-.3zm-1.724-3.377c0 1.654-.45 2.967-1.3 4.1l6.4 4.8c1.95-2.6 2.9-5.621 2.9-8.9zm-1.355 4.175a10.15 10.15 0 0 1-3.679 3.171l3.669 7.108a18.13 18.13 0 0 0 6.52-5.629zm-3.587 3.124c-1.566.758-3.073 1.101-4.558 1.101v8c2.782 0 5.475-.657 8.042-1.899zm-4.558 1.101c-1.574 0-2.93-.509-4.224-1.673l-5.352 5.946c2.707 2.436 5.951 3.727 9.576 3.727zm-4.224-1.673c-.805-.725-1.676-2.313-1.676-5.827h-8c0 4.62 1.129 8.898 4.324 11.773zm-1.676-5.827c0-2.07.259-4.386.811-6.962l-7.822-1.676c-.648 3.024-.989 5.908-.989 8.638zm.791-6.874q1.003-4.212 1.907-8.127l-7.795-1.798q-.897 3.885-1.894 8.073zm1.907-8.127c.632-2.741 1.002-5.205 1.002-7.299h-8c0 1.239-.23 3.042-.797 5.501zm1.002-7.299c0-1.454-.279-3.205-1.4-4.7l-6.4 4.8a1.3 1.3 0 0 1-.22-.415c-.004-.013.002.004.008.059q.01.08.012.256zm-1.103-4.243c-1.287-2.316-3.606-2.957-5.397-2.957v8c.062 0-.172.013-.537-.16a2.42 2.42 0 0 1-1.06-.997zm-5.397-2.957c-2.746 0-5.282 1.237-7.5 2.9l4.8 6.4c1.516-1.137 2.379-1.3 2.7-1.3zm-7.556 2.943c-2.279 1.772-4.17 4.065-5.717 6.772l6.946 3.97c1.12-1.96 2.362-3.4 3.683-4.428zm-5.759 6.849c-1.602 2.951-2.385 6.179-2.385 9.608h8c0-2.171.484-4.076 1.416-5.792zm-2.385 9.608c0 2.099.234 4.146.711 6.133l7.779-1.866a18.2 18.2 0 0 1-.49-4.267zm.748 6.279c.358 1.277.552 2.71.552 4.321h8c0-2.256-.272-4.423-.848-6.479zm.552 4.321c0 2.935-.751 4.495-1.628 5.372l5.657 5.656c2.856-2.856 3.971-6.763 3.971-11.028zm-1.628 5.372c-1.175 1.174-2.346 1.628-3.672 1.628v8c3.607 0 6.77-1.413 9.329-3.972zm45.188 2.728 2.875-2.78zm-1.6-20.9 3.888.936zm2.9-10.9-3.828-1.162-.007.022-.006.023zm2.8-11.5-3.923-.784-.005.025-.005.026zm.8-12.6 3.992-.242-.264-4.354-4.315.64zm-5.3 1.4 1.435 3.733zm-5.1 2.9h-4v8.064l6.42-4.88zm1.099-10.2 3.85 1.086.004-.013.003-.012zm4.301-5.8 1.961 3.486zm25.7-.3-.452 3.974.01.002zm15.5-.2.881 3.902.059-.014.059-.015zm4.8-2.8 2.179-3.354-2.949-1.917-2.278 2.68zm3 3.6-3.669 1.595.043.098.048.096zm-.2 10.1-3.578-1.789-.015.029-.014.03zm-3.8 4.2 2.096 3.407.047-.03.045-.03zm-27.1-2.2.715-3.936-5.958-1.083 1.342 5.906zm.7 4.4-3.984.362.008.09.012.088zm.1 9.5 3.986.332.001-.013zm-.601 5-3.953-.608-1.204 7.825 7.014-3.674zm11.201-3.5-.738-3.931-.011.002-.012.002zm8.5-.3 3.611-1.72-.811-1.703-1.83-.458zm-1.4 14.9 1.575 3.677 1.381-.592.65-1.354zm-.7.3-1.903 3.519 1.701.919 1.777-.761zm-8.6-3.1-.894 3.899.009.002.008.002zm-10.1-1.5.301-3.989-3.615-.273-.626 3.57zm-1.9 11.6-3.955-.603zm-.9 14.8h-4v.143l.01.142zm.2 2.8 2.828 2.828 1.291-1.291-.13-1.822zm-7.8-.7c-1.142 0-2.315-.425-3.625-1.78l-5.751 5.56c2.556 2.645 5.717 4.22 9.376 4.22zm-3.625-1.78c-.864-.895-1.775-2.917-1.775-7.12h-8c0 4.997 1.022 9.575 4.024 12.68zm-1.775-7.12c0-3.421.396-6.773 1.188-10.064l-7.777-1.872a50.8 50.8 0 0 0-1.411 11.936zm1.188-10.064a239 239 0 0 1 2.852-10.719l-7.681-2.234a243 243 0 0 0-2.948 11.081zm2.839-10.674a111 111 0 0 0 2.905-11.929l-7.865-1.466a103 103 0 0 1-2.695 11.071zm2.895-11.877c.873-4.364 1.156-8.91.87-13.627l-7.985.484c.247 4.084-.003 7.937-.73 11.573zm-3.709-17.342c-2.096.31-4.148.854-6.149 1.624l2.871 7.466a21 21 0 0 1 4.451-1.176zm-6.149 1.624c-2.128.818-4.155 1.982-6.085 3.448l4.841 6.37c1.403-1.067 2.776-1.837 4.115-2.352zm.336 6.633c0-4.012.355-7.006.949-9.114l-7.699-2.172c-.872 3.092-1.25 6.898-1.25 11.286zm.956-9.14c.491-1.783 1.326-2.767 2.405-3.374l-3.923-6.972c-3.187 1.793-5.219 4.676-6.195 8.225zm2.405-3.374c1.247-.701 3.596-1.286 7.539-1.286v-8c-4.458 0-8.442.615-11.462 2.314zM238.038 62c2.076 0 4.447.153 7.127.472l.945-7.944c-2.92-.348-5.615-.528-8.072-.528zm7.127.472q4.21.501 8.621 1.002l.903-7.948q-4.39-.5-8.579-.998zm8.631 1.003q4.693.524 8.942.525v-8q-3.752.002-8.059-.475zm8.942.525c2.832 0 5.468-.254 7.881-.798l-1.763-7.804c-1.721.389-3.751.602-6.118.602zm7.999-.827c2.687-.693 5.073-1.994 6.848-4.082l-6.095-5.182c-.491.578-1.306 1.145-2.752 1.518zm1.621-3.32c.64.417 1.14.99 1.511 1.842l7.337-3.19c-.963-2.214-2.463-4.042-4.489-5.359zm1.602 2.036c.44.88.678 1.862.678 3.011h8c0-2.318-.496-4.535-1.523-6.589zm.678 3.011c0 1.132-.268 2.29-.878 3.511l7.155 3.578c1.123-2.245 1.723-4.621 1.723-7.089zm-.907 3.57c-.447.93-1.185 1.799-2.382 2.582l4.377 6.696c2.27-1.484 4.065-3.416 5.218-5.817zm-2.29 2.523c-.908.56-2.376 1.007-4.703 1.007v8c3.272 0 6.338-.62 8.896-2.193zM266.738 72c-2.515 0-5.36-.4-8.561-1.263l-2.079 7.726c3.733 1.005 7.287 1.537 10.64 1.537zm-8.561-1.263a136 136 0 0 0-11.024-2.472l-1.431 7.87q5.343.972 10.376 2.328zm-15.64 2.35q.442 1.946.617 3.875l7.967-.724a38 38 0 0 0-.783-4.924zm.637 4.053q.263 1.922.264 3.96h8q0-2.562-.337-5.04zm.264 3.96q0 2.34-.188 4.681l7.975.638a67 67 0 0 0 .213-5.319zm-.187 4.668a69 69 0 0 1-.567 4.724l7.907 1.216q.42-2.725.633-5.276zm5.243 8.875c1.115-.584 2.564-1.163 4.393-1.712l-2.299-7.662c-2.171.651-4.122 1.405-5.807 2.288zm4.393-1.712a59 59 0 0 1 5.711-1.404l-1.521-7.854q-3.295.637-6.489 1.596zm5.688-1.4c1.958-.367 3.604-.531 4.963-.531v-8c-1.976 0-4.13.236-6.438.668zm4.963-.531c.829 0 1.424.08 1.829.18l1.941-7.76c-1.195-.3-2.467-.42-3.77-.42zm-.812-1.98c.348.73.612 1.809.612 3.38h8c0-2.429-.404-4.75-1.389-6.82zm.612 3.38c0 2.514-.626 5.192-2.007 8.069l7.213 3.462c1.819-3.79 2.794-7.645 2.794-11.531zm.024 6.123-.7.3 3.151 7.354.7-.3zm2.778.458c-2.845-1.537-6.069-2.685-9.626-3.484l-1.753 7.806c2.976.668 5.486 1.587 7.574 2.716zm-9.609-3.48q-5.116-1.17-10.692-1.59l-.603 7.978c3.35.252 6.518.725 9.508 1.41zm-14.933 1.708q-1.008 5.745-1.915 11.688l7.909 1.206a522 522 0 0 1 1.885-11.512zm-1.915 11.688a84 84 0 0 0-.945 12.703h8q0-5.908.854-11.497zm-.945 12.703v2.7h8v-2.7zm.01 2.985.2 2.8 7.979-.57-.2-2.8zm1.361-.313c-1.481 1.48-3.076 2.128-4.971 2.128v8c4.104 0 7.709-1.552 10.628-4.472z" mask="url(#b)"/><defs><filter id="a" width="271.038" height="78.4" x="11.6" y="56.5" color-interpolation-filters="sRGB" filterUnits="userSpaceOnUse"><feFlood flood-opacity="0" result="BackgroundImageFix"/><feBlend in="SourceGraphic" in2="BackgroundImageFix" result="shape"/><feColorMatrix in="SourceAlpha" result="hardAlpha" values="0 0 0 0 0 0 0 0 0 0 0 0 0 0 0 0 0 0 127 0"/><feOffset dx="7" dy="4"/><feGaussianBlur stdDeviation="2"/><feComposite in2="hardAlpha" k2="-1" k3="1" operator="arithmetic"/><feColorMatrix values="0 0 0 0 0 0 0 0 0 0 0 0 0 0 0 0 0 0 0.25 0"/><feBlend in2="shape" result="effect1_innerShadow_246_146"/></filter></defs></svg>